<svg width="62" height="50" viewBox="0 0 62 50" fill="none" xmlns="http://www.w3.org/2000/svg">
<path d="M57.2246 0H47.9449C45.3824 0 43.3051 2.09863 43.3051 4.6875V7.8125H18.5593V4.6875C18.5593 2.09863 16.482 0 13.9195 0H4.63983C2.07729 0 0 2.09863 0 4.6875V14.0625C0 16.6514 2.07729 18.75 4.63983 18.75H13.8093L22.3891 33.4189C21.928 34.1475 21.6516 35.0078 21.6516 35.9375V45.3125C21.6516 47.9014 23.7289 50 26.2914 50H35.5711C38.1336 50 40.2109 47.9014 40.2109 45.3125V35.9375C40.2109 33.3486 38.1336 31.25 35.5711 31.25H26.2914C25.7888 31.25 25.3141 31.3516 24.8608 31.501L16.7962 17.7139C17.8633 16.8545 18.5593 15.5469 18.5593 14.0625V10.9375H43.3051V14.0625C43.3051 16.6514 45.3824 18.75 47.9449 18.75H57.2246C59.7871 18.75 61.8644 16.6514 61.8644 14.0625V4.6875C61.8644 2.09863 59.7871 0 57.2246 0ZM3.09322 14.0625V4.6875C3.09322 3.82617 3.78726 3.125 4.63983 3.125H13.9195C14.7721 3.125 15.4661 3.82617 15.4661 4.6875V14.0625C15.4661 14.9238 14.7721 15.625 13.9195 15.625H4.63983C3.78726 15.625 3.09322 14.9238 3.09322 14.0625ZM35.572 34.375C36.4246 34.375 37.1186 35.0762 37.1186 35.9375V45.3125C37.1186 46.1738 36.4246 46.875 35.572 46.875H26.2924C25.4398 46.875 24.7458 46.1738 24.7458 45.3125V35.9375C24.7458 35.0762 25.4398 34.375 26.2924 34.375H35.572ZM58.7712 14.0625C58.7712 14.9238 58.0771 15.625 57.2246 15.625H47.9449C47.0923 15.625 46.3983 14.9238 46.3983 14.0625V4.6875C46.3983 3.82617 47.0923 3.125 47.9449 3.125H57.2246C58.0771 3.125 58.7712 3.82617 58.7712 4.6875V14.0625Z" fill="black"/>
</svg>
