<svg width="64" height="50" viewBox="0 0 64 50" fill="none" xmlns="http://www.w3.org/2000/svg">
<path d="M18.1408 20.126C18.0487 20.0333 17.9391 19.9597 17.8183 19.9094C17.6976 19.8592 17.5681 19.8333 17.4374 19.8333C17.3066 19.8333 17.1771 19.8592 17.0564 19.9094C16.9357 19.9597 16.8261 20.0333 16.7339 20.126L7.93287 28.9271L3.0985 24.0927C2.91254 23.9069 2.66041 23.8025 2.39751 23.8025C2.13462 23.8025 1.88248 23.9069 1.69653 24.0927L0.290843 25.4984C0.198641 25.5905 0.125497 25.6999 0.0755917 25.8202C0.0256868 25.9406 0 26.0697 0 26.2C0 26.3303 0.0256868 26.4594 0.0755917 26.5798C0.125497 26.7001 0.198641 26.8095 0.290843 26.9016L7.23251 33.8433C7.41846 34.0291 7.6706 34.1335 7.93349 34.1335C8.19639 34.1335 8.44852 34.0291 8.63448 33.8433L19.5428 22.9349C19.635 22.8428 19.7082 22.7335 19.7581 22.6131C19.808 22.4927 19.8337 22.3637 19.8337 22.2333C19.8337 22.103 19.808 21.974 19.7581 21.8536C19.7082 21.7332 19.635 21.6238 19.5428 21.5317L18.1408 20.126ZM7.9242 42.0667C5.73385 42.0667 3.90795 43.843 3.90795 46.0333C3.90795 48.2237 5.73385 50 7.9242 50C8.97622 50 9.98516 49.5821 10.7291 48.8382C11.4729 48.0943 11.8909 47.0854 11.8909 46.0333C11.8909 44.9813 11.4729 43.9724 10.7291 43.2285C9.98516 42.4846 8.97622 42.0667 7.9242 42.0667ZM18.1408 0.292709C18.0487 0.199949 17.9391 0.126332 17.8183 0.076097C17.6976 0.0258619 17.5681 0 17.4374 0C17.3066 0 17.1771 0.0258619 17.0564 0.076097C16.9357 0.126332 16.8261 0.199949 16.7339 0.292709L7.93287 9.09375L3.0985 4.25938C2.91254 4.07354 2.66041 3.96915 2.39751 3.96915C2.13462 3.96915 1.88248 4.07354 1.69653 4.25938L0.290843 5.66506C0.198641 5.75716 0.125497 5.86653 0.0755917 5.98692C0.0256868 6.1073 0 6.23635 0 6.36667C0 6.49699 0.0256868 6.62603 0.0755917 6.74642C0.125497 6.8668 0.198641 6.97617 0.290843 7.06827L7.23251 14.0099C7.41846 14.1958 7.6706 14.3002 7.93349 14.3002C8.19639 14.3002 8.44852 14.1958 8.63448 14.0099L19.5428 3.10161C19.635 3.00951 19.7082 2.90014 19.7581 2.77975C19.808 2.65936 19.8337 2.53032 19.8337 2.4C19.8337 2.26968 19.808 2.14064 19.7581 2.02025C19.7082 1.89987 19.635 1.7905 19.5428 1.6984L18.1408 0.292709ZM62.4745 44.05H24.7912C24.5282 44.05 24.276 44.1545 24.09 44.3405C23.904 44.5264 23.7995 44.7787 23.7995 45.0417V47.025C23.7995 47.288 23.904 47.5402 24.09 47.7262C24.276 47.9122 24.5282 48.0167 24.7912 48.0167H62.4745C62.7375 48.0167 62.9898 47.9122 63.1758 47.7262C63.3617 47.5402 63.4662 47.288 63.4662 47.025V45.0417C63.4662 44.7787 63.3617 44.5264 63.1758 44.3405C62.9898 44.1545 62.7375 44.05 62.4745 44.05ZM62.4745 4.38333H24.7912C24.5282 4.38333 24.276 4.48781 24.09 4.67379C23.904 4.85976 23.7995 5.11199 23.7995 5.375V7.35833C23.7995 7.62134 23.904 7.87357 24.09 8.05955C24.276 8.24552 24.5282 8.35 24.7912 8.35H62.4745C62.7375 8.35 62.9898 8.24552 63.1758 8.05955C63.3617 7.87357 63.4662 7.62134 63.4662 7.35833V5.375C63.4662 5.11199 63.3617 4.85976 63.1758 4.67379C62.9898 4.48781 62.7375 4.38333 62.4745 4.38333ZM62.4745 24.2167H24.7912C24.5282 24.2167 24.276 24.3211 24.09 24.5071C23.904 24.6931 23.7995 24.9453 23.7995 25.2083V27.1917C23.7995 27.4547 23.904 27.7069 24.09 27.8929C24.276 28.0789 24.5282 28.1833 24.7912 28.1833H62.4745C62.7375 28.1833 62.9898 28.0789 63.1758 27.8929C63.3617 27.7069 63.4662 27.4547 63.4662 27.1917V25.2083C63.4662 24.9453 63.3617 24.6931 63.1758 24.5071C62.9898 24.3211 62.7375 24.2167 62.4745 24.2167Z" fill="black"/>
</svg>
