<svg width="50" height="62" viewBox="0 0 50 62" fill="none" xmlns="http://www.w3.org/2000/svg">
<path d="M45.4207 22.1154L48.137 19.399C48.7019 18.8341 48.7019 17.9207 48.137 17.3558L46.0937 15.3125C45.5288 14.7476 44.6154 14.7476 44.0505 15.3125L41.5625 17.8005C37.8245 14.4952 33.101 12.2837 27.8846 11.6947V5.76923H31.25C32.0433 5.76923 32.6923 5.12019 32.6923 4.32692V1.44231C32.6923 0.649038 32.0433 0 31.25 0H18.75C17.9567 0 17.3077 0.649038 17.3077 1.44231V4.32692C17.3077 5.12019 17.9567 5.76923 18.75 5.76923H22.1154V11.7067C9.66346 13.137 0 23.7019 0 36.5385C0 50.3486 11.1899 61.5385 25 61.5385C38.8101 61.5385 50 50.3486 50 36.5385C50 31.1659 48.3053 26.1899 45.4207 22.1154ZM25 55.7692C14.375 55.7692 5.76923 47.1635 5.76923 36.5385C5.76923 25.9135 14.375 17.3077 25 17.3077C35.625 17.3077 44.2308 25.9135 44.2308 36.5385C44.2308 47.1635 35.625 55.7692 25 55.7692ZM26.4423 42.3077H23.5577C22.7644 42.3077 22.1154 41.6587 22.1154 40.8654V24.5192C22.1154 23.726 22.7644 23.0769 23.5577 23.0769H26.4423C27.2356 23.0769 27.8846 23.726 27.8846 24.5192V40.8654C27.8846 41.6587 27.2356 42.3077 26.4423 42.3077Z" fill="black"/>
</svg>
