<svg width="50" height="41" viewBox="0 0 50 41" fill="none" xmlns="http://www.w3.org/2000/svg">
<path d="M49.7656 38.0036L1.79646 0.137106C1.66704 0.0334171 1.50184 -0.014516 1.33718 0.00384099C1.17252 0.022198 1.02187 0.105343 0.918331 0.235002L0.137075 1.21475C0.0335524 1.3444 -0.0143939 1.50994 0.00377109 1.675C0.0219361 1.84006 0.104726 1.99114 0.233951 2.09504L48.2031 39.9615C48.2672 40.013 48.3408 40.0513 48.4196 40.0742C48.4985 40.0971 48.5811 40.1043 48.6628 40.0952C48.7444 40.0861 48.8234 40.061 48.8954 40.0212C48.9673 39.9815 49.0307 39.9279 49.082 39.8636L49.8632 38.8839C49.9667 38.7541 50.0145 38.5885 49.9962 38.4235C49.9779 38.2584 49.8949 38.1074 49.7656 38.0036ZM24.9998 7.51852C27.6511 7.52143 30.1929 8.57852 32.0677 10.4579C33.9424 12.3372 34.9969 14.8853 34.9998 17.5432C34.9998 19.2364 34.5389 20.8082 33.7967 22.2085L35.785 23.7749C36.8475 21.936 37.4999 19.8253 37.4999 17.5432C37.4999 14.6587 36.4913 12.0367 34.8608 9.92052C39.2291 12.1312 42.7817 15.6789 45.0038 20.0493C43.6758 22.6337 41.8805 24.9484 39.7092 26.8755L41.6874 28.4371C43.9116 26.3789 45.8179 23.9527 47.2288 21.192C47.4076 20.8376 47.5007 20.446 47.5007 20.0489C47.5007 19.6518 47.4076 19.2603 47.2288 18.9059C42.9921 10.6191 34.6045 5.01237 24.9998 5.01237C21.4906 5.0105 18.0227 5.77008 14.8341 7.23893L18.4099 10.0584C20.1747 8.49906 22.4654 7.51852 24.9998 7.51852ZM29.7545 19.0179C29.9993 18.2698 30.0625 17.4738 29.9386 16.6963C29.8148 15.9188 29.5076 15.1822 29.0425 14.5477C28.5774 13.9132 27.968 13.3992 27.2648 13.0484C26.5617 12.6976 25.7851 12.5202 24.9998 12.5308C24.9216 12.5308 24.8521 12.5496 24.7771 12.5536C25.0803 13.3676 25.0737 14.2652 24.7584 15.0746L29.7545 19.0179ZM12.7528 15.1678C12.5904 15.9493 12.5056 16.7449 12.4997 17.5432C12.4916 19.6426 13.012 21.7102 14.0125 23.5546C15.0131 25.399 16.4615 26.9606 18.2238 28.095C19.9861 29.2294 22.0054 29.8999 24.0947 30.0444C26.1841 30.1889 28.2761 29.8029 30.1771 28.9219L27.8662 27.0979C26.9521 27.3743 26.0029 27.5678 25.0005 27.5678C22.3492 27.5649 19.8072 26.5078 17.9323 24.6285C16.0575 22.7492 15.0028 20.201 14.9997 17.5432C14.9997 17.3521 15.0458 17.1735 15.0559 16.9855L12.7528 15.1678ZM24.9998 32.5801C16.6122 32.5801 8.9473 27.7785 4.99961 20.0493C6.36134 17.3865 8.20979 15.1372 10.3364 13.2576L8.31604 11.6623C6.09103 13.7205 4.18554 16.146 2.77459 18.9067C2.59588 19.2611 2.50276 19.6526 2.50276 20.0497C2.50276 20.4468 2.59588 20.8384 2.77459 21.1927C7.00822 29.4795 15.3958 35.0863 24.9998 35.0863C28.5089 35.0881 31.9769 34.3285 35.1655 32.8597L32.8803 31.0584C30.3951 32.0194 27.7459 32.5801 24.9998 32.5801Z" fill="black"/>
</svg>
