<svg width="50" height="50" viewBox="0 0 50 50" fill="none" xmlns="http://www.w3.org/2000/svg">
<path d="M13.3065 27.8226C12.6411 27.8226 12.0968 27.2782 12.0968 26.6129V23.3871C12.0968 22.7218 12.6411 22.1774 13.3065 22.1774H36.6935C37.3589 22.1774 37.9032 22.7218 37.9032 23.3871V26.6129C37.9032 27.2782 37.3589 27.8226 36.6935 27.8226H13.3065ZM50 25C50 38.8105 38.8105 50 25 50C11.1895 50 0 38.8105 0 25C0 11.1895 11.1895 0 25 0C38.8105 0 50 11.1895 50 25ZM45.1613 25C45.1613 13.8609 36.1391 4.83871 25 4.83871C13.8609 4.83871 4.83871 13.8609 4.83871 25C4.83871 36.1391 13.8609 45.1613 25 45.1613C36.1391 45.1613 45.1613 36.1391 45.1613 25Z" fill="black"/>
</svg>
