<svg width="50" height="50" viewBox="0 0 50 50" fill="none" xmlns="http://www.w3.org/2000/svg">
<path d="M48.9583 21.875H28.125V1.04167C28.125 0.466146 27.6589 0 27.0833 0H22.9167C22.3411 0 21.875 0.466146 21.875 1.04167V21.875H1.04167C0.466146 21.875 0 22.3411 0 22.9167V27.0833C0 27.6589 0.466146 28.125 1.04167 28.125H21.875V48.9583C21.875 49.5339 22.3411 50 22.9167 50H27.0833C27.6589 50 28.125 49.5339 28.125 48.9583V28.125H48.9583C49.5339 28.125 50 27.6589 50 27.0833V22.9167C50 22.3411 49.5339 21.875 48.9583 21.875Z" fill="black"/>
</svg>
