<svg width="50" height="58" viewBox="0 0 50 58" fill="none" xmlns="http://www.w3.org/2000/svg">
<path d="M29.9107 46.7188H32.5893C32.9445 46.7188 33.2851 46.5768 33.5363 46.324C33.7875 46.0713 33.9286 45.7285 33.9286 45.3711V21.1133C33.9286 20.7559 33.7875 20.4131 33.5363 20.1603C33.2851 19.9076 32.9445 19.7656 32.5893 19.7656H29.9107C29.5555 19.7656 29.2149 19.9076 28.9637 20.1603C28.7125 20.4131 28.5714 20.7559 28.5714 21.1133V45.3711C28.5714 45.7285 28.7125 46.0713 28.9637 46.324C29.2149 46.5768 29.5555 46.7188 29.9107 46.7188ZM48.2143 8.98438H39.0167L35.2221 2.6167C34.7459 1.81823 34.0722 1.15751 33.2668 0.698936C32.4613 0.240357 31.5516 -0.000442861 30.6261 6.11438e-07H19.3739C18.4488 -5.48911e-05 17.5395 0.240929 16.7345 0.699489C15.9295 1.15805 15.2562 1.81856 14.7801 2.6167L10.9833 8.98438H1.78571C1.31211 8.98438 0.85791 9.17369 0.523024 9.51067C0.188137 9.84765 0 10.3047 0 10.7813L0 12.5781C0 13.0547 0.188137 13.5117 0.523024 13.8487C0.85791 14.1857 1.31211 14.375 1.78571 14.375H3.57143V52.1094C3.57143 53.5391 4.13584 54.9102 5.1405 55.9211C6.14516 56.9321 7.50777 57.5 8.92857 57.5H41.0714C42.4922 57.5 43.8548 56.9321 44.8595 55.9211C45.8642 54.9102 46.4286 53.5391 46.4286 52.1094V14.375H48.2143C48.6879 14.375 49.1421 14.1857 49.477 13.8487C49.8119 13.5117 50 13.0547 50 12.5781V10.7813C50 10.3047 49.8119 9.84765 49.477 9.51067C49.1421 9.17369 48.6879 8.98438 48.2143 8.98438ZM19.1786 5.71743C19.2383 5.61747 19.3227 5.53481 19.4236 5.47752C19.5246 5.42024 19.6386 5.3903 19.7545 5.39063H30.2455C30.3612 5.39049 30.475 5.42053 30.5757 5.4778C30.6765 5.53508 30.7607 5.61763 30.8203 5.71743L32.769 8.98438H17.231L19.1786 5.71743ZM41.0714 52.1094H8.92857V14.375H41.0714V52.1094ZM17.4107 46.7188H20.0893C20.4445 46.7188 20.7851 46.5768 21.0363 46.324C21.2875 46.0713 21.4286 45.7285 21.4286 45.3711V21.1133C21.4286 20.7559 21.2875 20.4131 21.0363 20.1603C20.7851 19.9076 20.4445 19.7656 20.0893 19.7656H17.4107C17.0555 19.7656 16.7149 19.9076 16.4637 20.1603C16.2125 20.4131 16.0714 20.7559 16.0714 21.1133V45.3711C16.0714 45.7285 16.2125 46.0713 16.4637 46.324C16.7149 46.5768 17.0555 46.7188 17.4107 46.7188Z" fill="black"/>
</svg>
