<svg width="56" height="50" viewBox="0 0 56 50" fill="none" xmlns="http://www.w3.org/2000/svg">
<path d="M38.8911 33.684L41.9846 30.5595C42.468 30.0713 43.309 30.413 43.309 31.116V45.3132C43.309 47.9007 41.2306 50 38.6688 50H4.64025C2.07845 50 0 47.9007 0 45.3132V10.9432C0 8.35571 2.07845 6.25641 4.64025 6.25641H31.08C31.7664 6.25641 32.1144 7.09613 31.6311 7.5941L28.5376 10.7186C28.3925 10.8651 28.1992 10.9432 27.9865 10.9432H4.64025V45.3132H38.6688V34.2308C38.6688 34.0258 38.7461 33.8305 38.8911 33.684ZM54.0299 13.9799L28.6439 39.6207L19.9047 40.5971C17.3719 40.8802 15.2162 38.7224 15.4965 36.1446L16.4632 27.3178L41.8493 1.677C44.0631 -0.559 47.6399 -0.559 49.844 1.677L54.0203 5.89513C56.2341 8.13113 56.2341 11.7536 54.0299 13.9799V13.9799ZM44.4787 16.997L38.8621 11.324L20.9005 29.4757L20.1948 35.8517L26.5074 35.1389L44.4787 16.997ZM50.7431 9.21496L46.5669 4.99683C46.1705 4.59649 45.5228 4.59649 45.1361 4.99683L42.149 8.01396L47.7656 13.687L50.7528 10.6698C51.1394 10.2597 51.1394 9.61529 50.7431 9.21496V9.21496Z" fill="black"/>
</svg>
