<svg width="65" height="50" viewBox="0 0 65 50" fill="none" xmlns="http://www.w3.org/2000/svg">
<path d="M63.5915 45.6483C63.5357 45.6037 61.0697 42.948 59.3625 39.5224C62.431 36.4986 64.2721 32.7048 64.2721 28.5651C64.2721 19.6385 55.7361 12.2629 44.6113 10.9462C41.1076 4.51908 32.8394 0 23.2099 0C10.3891 0 0.000751522 7.98929 0.000751522 17.8532C0.000751522 21.9817 1.84186 25.7755 4.91037 28.8105C3.20316 32.2361 0.748352 34.8918 0.70372 34.9364C0.000751543 35.684 -0.200097 36.7775 0.212758 37.726C0.614454 38.6744 1.55174 39.2881 2.5783 39.2881C8.54795 39.2881 13.3683 37.0341 16.5484 34.9587C17.5638 35.193 18.6015 35.3716 19.6727 35.4943C23.1875 41.9103 31.4446 46.4294 41.0742 46.4294C43.3951 46.4294 45.6267 46.1616 47.7468 45.6706C50.9269 47.7349 55.7361 50 61.7169 50C62.7434 50 63.6696 49.3863 64.0824 48.4378C64.4841 47.4894 64.2944 46.3959 63.5915 45.6483ZM17.3406 31.4662L15.8677 31.1314L14.5957 31.9572C12.3529 33.4189 8.9608 35.1038 4.80995 35.5836C5.79187 34.3227 7.06391 32.5039 8.10162 30.4062L9.26208 28.0852L7.42097 26.2665C5.65797 24.5369 3.57138 21.6693 3.57138 17.8532C3.57138 9.97545 12.3864 3.57063 23.2099 3.57063C34.0333 3.57063 42.8483 9.97545 42.8483 17.8532C42.8483 25.7309 34.0333 32.1357 23.2099 32.1357C21.2348 32.1357 19.2598 31.9125 17.3406 31.4662ZM49.6772 42.669L48.4051 41.8433L46.9322 42.1892C45.013 42.6356 43.038 42.8587 41.063 42.8587C33.799 42.8587 27.45 39.9688 24.0579 35.684C36.477 35.3269 46.419 27.4939 46.419 17.8532C46.419 16.7931 46.2739 15.7666 46.0507 14.7623C54.464 16.3803 60.7015 21.9482 60.7015 28.5651C60.7015 32.3812 58.6149 35.2488 56.8519 36.9784L55.0108 38.7971L56.1601 41.1069C57.209 43.2158 58.481 45.0346 59.4518 46.2843C55.3121 45.8157 51.92 44.1196 49.6772 42.669Z" fill="black"/>
</svg>
