<svg width="50" height="55" viewBox="0 0 50 55" fill="none" xmlns="http://www.w3.org/2000/svg">
<path d="M13.6765 54.2373C10.1727 54.2373 6.66877 52.9036 4.0014 50.2361C-1.33376 44.9012 -1.33376 36.2207 4.00119 30.886L31.7629 3.12481C35.9293 -1.0416 42.7087 -1.0416 46.8752 3.12481C51.0416 7.29133 51.0416 14.0705 46.8752 18.2368L23.2915 41.82C20.294 44.818 15.4158 44.8182 12.4176 41.82C9.41972 38.822 9.41972 33.9441 12.4176 30.9462L30.4579 12.9062C30.9543 12.4098 31.7592 12.4098 32.2556 12.9062L32.8553 13.5058C33.3517 14.0022 33.3517 14.8071 32.8553 15.3036L14.8151 33.3435C13.1391 35.0195 13.1391 37.7464 14.8152 39.4224C16.4911 41.0983 19.2181 41.0983 20.8941 39.4224L44.4777 15.8392C47.3221 12.9948 47.3221 8.36665 44.4777 5.52205C41.6329 2.67767 37.0049 2.67788 34.1605 5.52205L6.39875 33.2835C2.38583 37.2964 2.38583 43.8257 6.39875 47.8386C10.4119 51.8514 16.9414 51.8516 20.9542 47.8387L44.0202 24.7732C44.5166 24.2768 45.3215 24.2768 45.8179 24.7732L46.4176 25.3729C46.914 25.8693 46.914 26.6741 46.4176 27.1707L23.3517 50.2361C20.6843 52.9036 17.1804 54.2373 13.6765 54.2373Z" fill="white"/>
</svg>
